<?xml version="1.0" encoding="UTF-8"?><svg xmlns="http://www.w3.org/2000/svg" viewBox="0 0 195.9 195.9"><defs><style>.d{fill:#ddd;}.e{fill:none;stroke:#636363;stroke-width:3px;}.e,.f{stroke-miterlimit:10;}.g{fill:#d1d1d1;}.h{fill:#c1272d;}.f{fill:#d1cfcf;stroke:#b2b1b1;stroke-width:.5px;}</style></defs><g id="a"/><g id="b"><g id="c"><circle class="e" cx="97.95" cy="97.95" r="96.45" transform="translate(-40.57 97.95) rotate(-45)"/><g><circle class="d" cx="97.95" cy="30.8" r="26.52" transform="translate(45.46 119.06) rotate(-76.72)"/><circle class="f" cx="97.59" cy="30.19" r="16.94" transform="translate(-4.12 39.64) rotate(-22.5)"/><g><rect class="g" x="97.59" y="4.86" width=".71" height="7.37"/><rect class="g" x="96.43" y="4.89" width=".71" height="7.37" transform="translate(-.32 5.08) rotate(-3)"/><rect class="g" x="95.27" y="4.98" width=".71" height="7.37" transform="translate(-.38 10.05) rotate(-6)"/><rect class="g" x="94.11" y="5.14" width=".71" height="7.37" transform="translate(-.22 14.88) rotate(-9)"/><rect class="g" x="92.96" y="5.35" width=".71" height="7.37" transform="translate(.16 19.6) rotate(-12)"/><rect class="g" x="91.83" y="5.62" width=".71" height="7.37" transform="translate(.73 24.18) rotate(-15)"/><rect class="g" x="90.71" y="5.95" width=".71" height="7.37" transform="translate(1.48 28.61) rotate(-18)"/><rect class="g" x="89.62" y="6.34" width=".71" height="7.37" transform="translate(2.38 32.91) rotate(-21)"/><rect class="g" x="88.54" y="6.79" width=".71" height="7.37" transform="translate(3.43 37.06) rotate(-24)"/><rect class="g" x="87.49" y="7.29" width=".71" height="7.37" transform="translate(4.59 41.07) rotate(-27)"/><rect class="g" x="86.46" y="7.84" width=".71" height="7.37" transform="translate(5.87 44.95) rotate(-30)"/><rect class="g" x="85.47" y="8.45" width=".71" height="7.37" transform="translate(7.24 48.7) rotate(-33)"/><rect class="g" x="84.51" y="9.11" width=".71" height="7.37" transform="translate(8.68 52.32) rotate(-36)"/><rect class="g" x="83.58" y="9.82" width=".71" height="7.37" transform="translate(10.21 55.83) rotate(-39)"/><rect class="g" x="82.7" y="10.58" width=".71" height="7.37" transform="translate(11.79 59.24) rotate(-42)"/><rect class="g" x="81.85" y="11.38" width=".71" height="7.37" transform="translate(13.43 62.54) rotate(-45)"/><rect class="g" x="81.05" y="12.23" width=".71" height="7.37" transform="translate(15.11 65.76) rotate(-48)"/><rect class="g" x="80.29" y="13.11" width=".71" height="7.37" transform="translate(16.84 68.9) rotate(-51)"/><rect class="g" x="79.58" y="14.04" width=".71" height="7.37" transform="translate(18.62 71.98) rotate(-54)"/><rect class="g" x="78.92" y="15" width=".71" height="7.37" transform="translate(20.43 74.99) rotate(-57)"/><rect class="g" x="78.32" y="15.99" width=".71" height="7.37" transform="translate(22.3 77.97) rotate(-60)"/><rect class="g" x="77.76" y="17.02" width=".71" height="7.37" transform="translate(24.21 80.9) rotate(-63)"/><rect class="g" x="77.26" y="18.07" width=".71" height="7.37" transform="translate(26.17 83.81) rotate(-66)"/><rect class="g" x="76.81" y="19.14" width=".71" height="7.37" transform="translate(28.2 86.69) rotate(-69)"/><rect class="g" x="76.42" y="20.24" width=".71" height="7.37" transform="translate(30.3 89.55) rotate(-72)"/><rect class="g" x="76.09" y="21.36" width=".71" height="7.37" transform="translate(32.47 92.4) rotate(-75)"/><rect class="g" x="75.82" y="22.49" width=".71" height="7.37" transform="translate(34.73 95.24) rotate(-78)"/><rect class="g" x="75.61" y="23.64" width=".71" height="7.37" transform="translate(37.1 98.08) rotate(-81)"/><rect class="g" x="75.45" y="24.79" width=".71" height="7.37" transform="translate(39.57 100.9) rotate(-84)"/><rect class="g" x="75.36" y="25.96" width=".71" height="7.37" transform="translate(42.16 103.7) rotate(-87)"/><rect class="g" x="72.01" y="30.45" width="7.37" height=".71"/><rect class="g" x="72.04" y="31.61" width="7.37" height=".71" transform="translate(-1.58 4.04) rotate(-3.02)"/><rect class="g" x="72.13" y="32.78" width="7.37" height=".71" transform="translate(-3.07 8.18) rotate(-6.06)"/><rect class="g" x="72.28" y="33.93" width="7.37" height=".71" transform="translate(-4.43 12.29) rotate(-8.99)"/><rect class="g" x="72.49" y="35.08" width="7.37" height=".71" transform="translate(-5.68 16.53) rotate(-11.94)"/><rect class="g" x="72.76" y="36.21" width="7.37" height=".71" transform="translate(-6.87 21.11) rotate(-15.05)"/><rect class="g" x="73.1" y="37.33" width="7.37" height=".71" transform="translate(-7.88 25.53) rotate(-17.97)"/><rect class="g" x="73.48" y="38.43" width="7.37" height=".71" transform="translate(-8.76 30.15) rotate(-20.94)"/><rect class="g" x="73.93" y="39.5" width="7.37" height=".71" transform="translate(-9.5 34.99) rotate(-23.99)"/><rect class="g" x="74.43" y="40.55" width="7.37" height=".71" transform="translate(-10.06 39.87) rotate(-26.97)"/><rect class="g" x="74.99" y="41.58" width="7.37" height=".71" transform="translate(-10.43 44.95) rotate(-30)"/><rect class="g" x="75.6" y="42.57" width="7.37" height=".71" transform="translate(-10.59 50.12) rotate(-33.01)"/><rect class="g" x="76.26" y="43.53" width="7.37" height=".71" transform="translate(-10.53 55.4) rotate(-36.02)"/><rect class="g" x="76.97" y="44.46" width="7.37" height=".71" transform="translate(-10.24 60.7) rotate(-38.97)"/><rect class="g" x="77.72" y="45.34" width="7.37" height=".71" transform="translate(-9.66 66.26) rotate(-42.03)"/><rect class="g" x="78.53" y="46.19" width="7.37" height=".71" transform="translate(-8.83 71.76) rotate(-45)"/><rect class="g" x="79.37" y="46.99" width="7.37" height=".71" transform="translate(-7.72 77.34) rotate(-47.97)"/><rect class="g" x="80.26" y="47.75" width="7.37" height=".71" transform="translate(-6.25 83.11) rotate(-51.03)"/><rect class="g" x="81.18" y="48.46" width="7.37" height=".71" transform="translate(-4.52 88.74) rotate(-53.98)"/><rect class="g" x="82.14" y="49.12" width="7.37" height=".71" transform="translate(-2.44 94.45) rotate(-56.96)"/><rect class="g" x="83.14" y="49.73" width="7.37" height=".71" transform="translate(.02 100.2) rotate(-59.98)"/><rect class="g" x="84.16" y="50.28" width="7.37" height=".71" transform="translate(2.83 105.9) rotate(-62.99)"/><rect class="g" x="85.21" y="50.78" width="7.37" height=".71" transform="translate(6.06 111.6) rotate(-66.04)"/><rect class="g" x="86.29" y="51.23" width="7.37" height=".71" transform="translate(9.57 117.1) rotate(-69)"/><rect class="g" x="87.39" y="51.62" width="7.37" height=".71" transform="translate(13.52 122.55) rotate(-72.02)"/><rect class="g" x="88.5" y="51.95" width="7.37" height=".71" transform="translate(17.83 127.84) rotate(-75.02)"/><rect class="g" x="89.64" y="52.22" width="7.37" height=".71" transform="translate(22.49 132.93) rotate(-78)"/><rect class="g" x="90.78" y="52.43" width="7.37" height=".71" transform="translate(27.57 137.85) rotate(-81.02)"/><rect class="g" x="91.94" y="52.59" width="7.37" height=".71" transform="translate(32.97 142.51) rotate(-84)"/><rect class="g" x="93.1" y="52.68" width="7.37" height=".71" transform="translate(38.72 146.88) rotate(-86.98)"/><rect class="g" x="97.59" y="49.38" width=".71" height="7.37"/><rect class="g" x="98.76" y="49.35" width=".71" height="7.37" transform="translate(-2.64 5.26) rotate(-3)"/><rect class="g" x="99.92" y="49.26" width=".71" height="7.37" transform="translate(-4.99 10.78) rotate(-6)"/><rect class="g" x="101.07" y="49.11" width=".71" height="7.37" transform="translate(-7.01 16.52) rotate(-9)"/><rect class="g" x="102.22" y="48.89" width=".71" height="7.37" transform="translate(-8.69 22.47) rotate(-12)"/><rect class="g" x="103.35" y="48.62" width=".71" height="7.37" transform="translate(-10 28.62) rotate(-15)"/><rect class="g" x="104.47" y="48.29" width=".71" height="7.37" transform="translate(-10.93 34.94) rotate(-18)"/><rect class="g" x="105.57" y="47.9" width=".71" height="7.37" transform="translate(-11.45 41.39) rotate(-21)"/><rect class="g" x="106.65" y="47.46" width=".71" height="7.37" transform="translate(-11.55 47.94) rotate(-24)"/><rect class="g" x="107.7" y="46.96" width=".71" height="7.37" transform="translate(-11.21 54.57) rotate(-27)"/><rect class="g" x="108.72" y="46.4" width=".71" height="7.37" transform="translate(-10.43 61.26) rotate(-30)"/><rect class="g" x="109.72" y="45.79" width=".71" height="7.37" transform="translate(-9.19 67.93) rotate(-33)"/><rect class="g" x="110.68" y="45.13" width=".71" height="7.37" transform="translate(-7.49 74.58) rotate(-36)"/><rect class="g" x="111.6" y="44.42" width=".71" height="7.37" transform="translate(-5.32 81.18) rotate(-39)"/><rect class="g" x="112.49" y="43.66" width=".71" height="7.37" transform="translate(-2.7 87.67) rotate(-42)"/><rect class="g" x="113.33" y="42.86" width=".71" height="7.37" transform="translate(.39 94.02) rotate(-45)"/><rect class="g" x="114.13" y="42.02" width=".71" height="7.37" transform="translate(3.92 100.2) rotate(-48)"/><rect class="g" x="114.89" y="41.13" width=".71" height="7.37" transform="translate(7.89 106.18) rotate(-51)"/><rect class="g" x="115.6" y="40.21" width=".71" height="7.37" transform="translate(12.29 111.9) rotate(-54)"/><rect class="g" x="116.26" y="39.24" width=".71" height="7.37" transform="translate(17.1 117.35) rotate(-57)"/><rect class="g" x="116.87" y="38.25" width=".71" height="7.37" transform="translate(22.3 122.49) rotate(-60)"/><rect class="g" x="117.43" y="37.23" width=".71" height="7.37" transform="translate(27.86 127.29) rotate(-63)"/><rect class="g" x="117.93" y="36.18" width=".71" height="7.37" transform="translate(33.76 131.71) rotate(-66)"/><rect class="g" x="118.37" y="35.1" width=".71" height="7.37" transform="translate(39.98 135.73) rotate(-69)"/><rect class="g" x="118.76" y="34" width=".71" height="7.37" transform="translate(46.47 139.33) rotate(-72)"/><rect class="g" x="119.09" y="32.88" width=".71" height="7.37" transform="translate(53.21 142.48) rotate(-75)"/><rect class="g" x="119.37" y="31.75" width=".71" height="7.37" transform="translate(60.17 145.17) rotate(-78)"/><rect class="g" x="119.58" y="30.6" width=".71" height="7.37" transform="translate(67.31 147.38) rotate(-81)"/><polygon class="g" points="123.71 33.87 116.39 33.1 116.46 32.39 123.79 33.16 123.71 33.87"/><rect class="g" x="119.82" y="28.29" width=".71" height="7.37" transform="translate(81.96 150.31) rotate(-87)"/><rect class="g" x="116.53" y="30.45" width="7.37" height=".71"/><rect class="g" x="116.49" y="29.28" width="7.37" height=".71" transform="translate(-1.4 6.38) rotate(-3.02)"/><polygon class="g" points="116.46 29.22 116.39 28.51 123.71 27.74 123.79 28.45 116.46 29.22"/><rect class="g" x="116.25" y="26.97" width="7.37" height=".71" transform="translate(-2.8 19.08) rotate(-8.99)"/><rect class="g" x="116.04" y="25.82" width="7.37" height=".71" transform="translate(-2.83 25.35) rotate(-11.95)"/><rect class="g" x="115.77" y="24.69" width="7.37" height=".71" transform="translate(-2.41 31.88) rotate(-15.05)"/><rect class="g" x="115.44" y="23.57" width="7.37" height=".71" transform="translate(-1.57 37.94) rotate(-17.98)"/><rect class="g" x="115.05" y="22.47" width="7.37" height=".71" transform="translate(-.32 43.95) rotate(-20.94)"/><rect class="g" x="114.6" y="21.4" width="7.37" height=".71" transform="translate(1.37 49.96) rotate(-23.99)"/><rect class="g" x="114.1" y="20.34" width="7.37" height=".71" transform="translate(3.42 55.65) rotate(-26.96)"/><rect class="g" x="113.54" y="19.32" width="7.37" height=".71" transform="translate(5.87 61.24) rotate(-30)"/><rect class="g" x="112.93" y="18.33" width="7.37" height=".71" transform="translate(8.65 66.54) rotate(-33.01)"/><rect class="g" x="112.27" y="17.36" width="7.37" height=".71" transform="translate(11.74 71.57) rotate(-36.02)"/><rect class="g" x="111.56" y="16.44" width="7.37" height=".71" transform="translate(15.08 76.22) rotate(-38.97)"/><rect class="g" x="110.81" y="15.55" width="7.37" height=".71" transform="translate(18.8 80.75) rotate(-42.03)"/><rect class="g" x="110.01" y="14.71" width="7.37" height=".71" transform="translate(22.64 84.79) rotate(-44.99)"/><rect class="g" x="109.16" y="13.91" width="7.37" height=".71" transform="translate(26.7 88.54) rotate(-47.97)"/><rect class="g" x="108.27" y="13.15" width="7.37" height=".71" transform="translate(31.04 92.05) rotate(-51.03)"/><rect class="g" x="107.35" y="12.44" width="7.37" height=".71" transform="translate(35.39 95.07) rotate(-53.98)"/><rect class="g" x="106.39" y="11.78" width="7.37" height=".71" transform="translate(39.89 97.79) rotate(-56.96)"/><rect class="g" x="105.4" y="11.17" width="7.37" height=".71" transform="translate(44.52 100.2) rotate(-59.98)"/><rect class="g" x="104.37" y="10.62" width="7.37" height=".71" transform="translate(49.2 102.25) rotate(-62.99)"/><rect class="g" x="103.32" y="10.11" width="7.37" height=".71" transform="translate(53.98 104) rotate(-66.04)"/><rect class="g" x="102.24" y="9.67" width="7.37" height=".71" transform="translate(58.61 105.32) rotate(-69)"/><rect class="g" x="101.14" y="9.28" width="7.37" height=".71" transform="translate(63.31 106.37) rotate(-72.02)"/><rect class="g" x="100.03" y="8.95" width="7.37" height=".71" transform="translate(67.91 107.08) rotate(-75.02)"/><rect class="g" x="98.89" y="8.68" width="7.37" height=".71" transform="translate(72.42 107.49) rotate(-78)"/><rect class="g" x="97.75" y="8.46" width="7.37" height=".71" transform="translate(76.88 107.63) rotate(-81.02)"/><rect class="g" x="96.59" y="8.31" width="7.37" height=".71" transform="translate(81.18 107.49) rotate(-84)"/><rect class="g" x="95.43" y="8.22" width="7.37" height=".71" transform="translate(85.32 107.1) rotate(-86.98)"/></g><path class="h" d="M103.91,32.3l-5.38-9.31c-.42-.72-1.46-.72-1.87,0l-5.38,9.31c-.42,.72,.1,1.62,.94,1.62h10.75c.83,0,1.35-.9,.94-1.62Z"/></g></g></g></svg>