<svg width="320px" height="320px" viewBox="0 0 320 320" fill="none" xmlns="http://www.w3.org/2000/svg">
<path fill-rule="evenodd" clip-rule="evenodd" d="M65.5692 23.4761C41.0262 35.4408 19.1727 71.7985 12.9771 112.214C8.06591 144.251 12.5135 175.029 23.9964 194.471C32.722 209.245 47.8533 222.44 66.0449 229.562C66.1858 228.746 66.3362 227.94 66.5157 227.158C66.7391 226.184 68.2928 226.19 68.6118 227.137C68.8632 227.884 69.0844 228.7 69.3158 229.554C69.4344 229.992 69.5556 230.439 69.6849 230.892C74.3304 232.467 79.1534 233.645 84.1016 234.354C89.718 235.158 94.6357 235.616 99.0304 235.739C91.8555 225.168 89.3174 211.447 93.6183 194.435C88.5991 194.343 84.6517 193.558 82.0983 191.979C69.0497 183.905 60.1761 175.338 55.3847 164.893C60.2244 167.124 65.7778 168.714 72.0807 169.545C80.226 170.618 90.1594 169.827 101.131 167.626C108.553 147.911 121.265 130.847 136.253 116.745C125.595 117.557 115.695 125.214 107.633 131.45C100.711 136.804 95.1433 141.11 91.6148 139.135C83.6008 134.648 89.1104 106.73 91.6148 99.7509C92.3454 97.7149 93.4768 95.1141 94.795 92.0838L94.7951 92.0836L94.7952 92.0833C97.9956 84.7263 102.297 74.8382 104.638 64.3554C106.641 55.3819 110.78 36.5018 97.6253 26.9658C87.0023 19.265 77.3715 17.7225 65.5692 23.4761ZM159.855 124.685C147.33 135.298 136.072 147.528 127.678 160.346C142.227 155.444 157.45 149.012 172.05 141.839C169.953 136.374 165.978 129.762 159.855 124.685ZM207.325 122.305C204.536 116.257 201.981 109.702 200.305 101.745C200.086 100.706 199.891 99.6889 199.717 98.6932C217.402 90.3698 234.511 86.6201 247.426 89.7803C240.503 99.1083 225.775 110.778 207.325 122.305ZM219.607 150.2C233.411 141.522 244.592 132.322 250.778 123.35C250.857 123.236 250.907 123.109 250.933 122.973C254.259 105.212 253.606 95.9489 251.335 79.8098C250.674 67.1909 227.786 66.9778 199.67 77.4217C202.676 63.9127 211.853 57.1211 220.34 52.3907C232.862 45.4113 250.393 48.901 259.91 55.3819C269.426 61.8628 283.952 79.3113 292.467 94.7656C300.982 110.22 309.219 136.138 308.996 174.53C308.976 177.928 308.977 181.333 308.977 184.733C308.986 223.968 308.995 262.736 277.44 286.201C261.722 297.888 249.391 301.156 235.367 299.661C224.891 298.544 213.297 295.758 204.969 279.044C216.274 276.01 226.926 271.747 235.92 266.521C236.205 266.356 236.382 266.063 236.406 265.735L237.263 253.796L237.738 247.179C237.795 246.383 236.946 245.84 236.246 246.221C224.735 252.473 211.771 257.027 198.452 259.812C198.228 258.829 198.011 257.821 197.801 256.787C193.489 235.617 200.844 225.008 208.584 213.844C214.331 205.554 220.291 196.957 221.843 183.504C223.467 169.43 222.216 159.031 219.607 150.2ZM171.366 174.474C151.742 182.496 131.86 188.736 115.58 191.979C106.65 209.276 102.592 223.774 102.281 235.768C116.29 235.611 124.824 231.657 134.69 224.383C148.214 214.412 166.246 189.486 169.251 181.51C169.956 179.637 170.69 177.214 171.366 174.474ZM55.3847 164.893C12.0801 144.936 25.9129 73.7683 71.1862 37.6424C71.6578 37.266 72.3528 37.3967 72.6598 37.9161L81.8209 53.4169C81.9938 53.7095 82.0029 54.0765 81.8508 54.3804C54.0173 110.002 44.8677 141.968 55.3847 164.893ZM264.99 173.135C264.671 172.188 263.117 172.181 262.894 173.155C262.618 174.359 262.411 175.614 262.201 176.884C261.286 182.431 260.327 188.243 253.398 191.082C252.592 191.413 252.816 193.357 253.687 193.357C260.41 193.357 264.99 198.56 266.922 207.035C267.15 208.036 268.412 207.798 268.459 206.773C268.702 201.453 269.315 193.412 275.011 190.186C275.923 189.67 275.937 187.406 274.936 187.094C268.259 185.017 266.85 179.816 265.694 175.552C265.463 174.698 265.241 173.882 264.99 173.135Z" fill="#E95B47"/>
<path d="M101.131 167.625C90.1594 169.826 80.226 170.618 72.0807 169.545C65.7778 168.714 60.2244 167.123 55.3847 164.893M101.131 167.625C131.416 87.1733 249.819 50.8722 251.335 79.8097M101.131 167.625C109.488 165.949 118.447 163.455 127.678 160.345M251.335 79.8097C251.399 81.0238 251.257 82.3527 250.894 83.798C250.175 85.6509 249.003 87.6548 247.426 89.7803M251.335 79.8097C253.606 95.9489 254.259 105.212 250.933 122.973C250.907 123.109 250.857 123.236 250.778 123.35C230.967 152.085 159.919 183.147 115.58 191.979M93.6183 194.434C88.5991 194.343 84.6517 193.558 82.0983 191.979C69.0497 183.905 60.1762 175.338 55.3847 164.893M93.6183 194.434C99.5987 194.543 107.101 193.667 115.58 191.979M93.6183 194.434C88.7117 213.843 92.706 228.967 102.332 240.018M115.58 191.979C105.568 211.372 101.68 227.245 102.332 240.018M247.426 89.7803C231.742 110.913 175.994 144.068 127.678 160.345M247.426 89.7803C214.831 81.8038 155.509 117.847 127.678 160.345M61.0613 74.8244L58.5569 79.8097M69.5762 60.3671L66.5709 65.8509M58.5569 64.3553L55.0507 70.3377M80.0946 179.017L83.6007 183.504M91.6148 180.512L93.6183 184.999M243.881 111.716L237.871 115.704M227.853 123.182L222.344 127.668M240.876 123.182L235.367 127.668M227.853 258.283L222.344 260.776M218.337 266.259L211.324 269.251M237.263 253.796L237.738 247.179C237.795 246.383 236.946 245.84 236.246 246.221C192.502 269.982 127.763 269.216 102.332 240.018M237.263 253.796L236.406 265.735C236.382 266.063 236.205 266.356 235.92 266.521C191.101 292.559 105.12 294.701 102.332 240.018M237.263 253.796C242.596 251.261 246.219 249.071 249.002 246.318M254.901 237.345C253.851 239.67 252.778 241.62 251.552 243.327M249.002 246.318C249.002 246.318 252.891 255.913 258.407 257.286C262.414 258.283 268.925 255.79 269.426 249.309C269.705 245.699 268.925 242.829 265.92 241.333C260.853 238.811 251.552 243.327 251.552 243.327M249.002 246.318C249.935 245.396 250.774 244.41 251.552 243.327M235.367 175.029C235.324 178.213 234.252 180.76 229.857 190.186M227.853 179.017C229.65 182.747 230.456 184.771 237.263 190.186M44.5323 220.395V233.855M35.5165 230.864C42.6908 228.827 46.6368 227.48 53.0472 223.386M55.3847 164.893C12.0801 144.936 25.9129 73.7683 71.1862 37.6423C71.6578 37.266 72.3528 37.3967 72.6598 37.9161L81.8209 53.4169C81.9938 53.7095 82.0029 54.0764 81.8508 54.3804C54.0173 110.002 44.8677 141.968 55.3847 164.893ZM275.011 190.186C269.315 193.412 268.702 201.453 268.459 206.773C268.412 207.798 267.15 208.036 266.922 207.035C264.99 198.56 260.41 193.356 253.687 193.356C252.816 193.356 252.592 191.413 253.398 191.082C261.913 187.593 261.412 179.616 262.894 173.155C263.117 172.181 264.671 172.188 264.99 173.135C266.496 177.608 266.922 184.601 274.936 187.094C275.937 187.406 275.923 189.67 275.011 190.186ZM78.6327 244.188C72.9366 247.414 72.3239 255.455 72.0807 260.776C72.0339 261.8 70.7718 262.038 70.5437 261.037C68.6118 252.562 64.0323 247.359 57.3093 247.359C56.4377 247.359 56.2141 245.415 57.02 245.084C65.5349 241.595 65.0341 233.618 66.5158 227.157C66.7391 226.184 68.2928 226.19 68.6118 227.137C70.1182 231.61 70.5437 238.604 78.5578 241.096C79.5591 241.408 79.5444 243.672 78.6327 244.188Z" stroke="black" stroke-width="5" stroke-linecap="round"/>
</svg>
