<?xml version="1.0" encoding="UTF-8"?><svg xmlns="http://www.w3.org/2000/svg" xmlns:xlink="http://www.w3.org/1999/xlink" viewBox="0 0 468.17 530.97"><defs><style>.f{fill:url(#e);opacity:.3;}.f,.g{mix-blend-mode:multiply;}.h{fill:#fff;}.i{isolation:isolate;}.g{fill:url(#d);opacity:.2;}.j{fill:#0b74b8;}.k{fill:#2eaade;}.l{fill:#ebebeb;}</style><linearGradient id="d" x1="226.34" y1="192.11" x2="118.65" y2="244.14" gradientTransform="matrix(1, 0, 0, 1, 0, 0)" gradientUnits="userSpaceOnUse"><stop offset="0" stop-color="#fff"/><stop offset="1" stop-color="#000"/></linearGradient><linearGradient id="e" x1="234.06" y1="158.58" x2="380.88" y2="158.58" xlink:href="#d"/></defs><g class="i"><g id="a"/><g id="b"><g id="c"><g><g><polygon class="j" points="233.8 530.97 42.61 477.89 0 0 468.17 0 425.52 477.81 233.8 530.97"/><polygon class="k" points="389.01 447.39 425.46 39.07 234.09 39.07 234.09 490.34 389.01 447.39"/></g><g><polygon class="l" points="103.1 275.71 375.63 157.07 380.88 98.46 97.88 217.1 103.1 275.71"/><polygon class="g" points="103.1 275.71 375.63 157.07 380.88 98.46 97.88 217.1 103.1 275.71"/><polygon class="l" points="234.06 98.46 87.29 98.46 88.69 114.19 92.52 157.07 234.26 157.07 234.26 98.46 234.06 98.46"/><polygon class="h" points="370.3 217.1 234.06 217.1 234.06 275.71 306.23 275.71 299.42 351.72 234.06 369.36 234.06 430.34 354.21 397.04 370.3 217.1"/><polygon class="h" points="234.06 160.01 234.06 218.7 375.63 157.07 380.88 98.46 234.06 160.01"/><polygon class="f" points="234.06 160.01 234.06 218.7 375.63 157.07 380.88 98.46 234.06 160.01"/><polygon class="l" points="97.88 217.1 103.1 275.71 234.26 275.71 234.26 217.1 97.88 217.1"/><polygon class="h" points="380.88 98.46 234.06 98.46 234.06 156.93 234.06 157.07 375.44 157.07 375.44 157.07 375.63 157.07 380.88 98.46"/><polygon class="l" points="234.07 369.38 234.06 369.38 168.79 351.75 164.62 305.01 132.9 305.01 105.78 305.01 113.99 397.04 234.05 430.37 234.07 430.36 234.07 369.38"/></g></g></g></g></g></svg>