<?xml version="1.0" encoding="UTF-8"?><svg xmlns="http://www.w3.org/2000/svg" viewBox="0 0 468.17 530.97"><defs><style>.d{fill:#fff;}.e{fill:#f16529;}.f{fill:#ebebeb;}.g{fill:#e44d26;}</style></defs><g id="a"/><g id="b"><g id="c"><g><g><polygon class="g" points="233.8 530.97 42.61 477.89 0 0 468.17 0 425.52 477.81 233.8 530.97"/><polygon class="e" points="389.01 447.39 425.46 39.07 234.09 39.07 234.09 490.34 389.01 447.39"/></g><polygon class="d" points="234.26 156.29 375.63 156.29 380.88 97.68 234.26 97.68 234.06 97.68 87.29 97.68 103.1 274.93 234.06 274.93 234.26 274.93 306.24 274.93 299.43 350.94 234.06 368.58 234.06 368.59 234 368.6 168.73 350.98 164.56 304.23 105.72 304.23 113.94 396.26 233.99 429.59 234.26 429.51 234.26 429.5 354.21 396.26 370.3 216.32 234.26 216.32 234.06 216.32 156.71 216.32 151.35 156.29 234.06 156.29 234.26 156.29"/><g><polygon class="f" points="234.09 368.57 234.06 368.58 234.06 368.59 234 368.6 168.73 350.98 164.56 304.23 105.72 304.23 113.94 396.26 233.99 429.59 234.09 429.56 234.09 368.57"/><polygon class="f" points="234.09 274.93 234.09 216.32 234.06 216.32 156.71 216.32 151.35 156.29 234.06 156.29 234.09 156.29 234.09 97.68 234.06 97.68 87.29 97.68 103.1 274.93 234.06 274.93 234.09 274.93"/></g></g></g></g></svg>