<?xml version="1.0" encoding="UTF-8"?><svg xmlns="http://www.w3.org/2000/svg" viewBox="0 0 468.17 531.49"><defs><style>.d{fill:#fff;}.e{fill:#dab92d;}.f{fill:#ffd83a;}</style></defs><g id="a"/><g id="b"><g id="c"><g><g><polygon class="e" points="232.62 531.49 41.55 477.98 0 0 468.17 1.04 424.46 478.76 232.62 531.49"/><polygon class="f" points="388.01 448.25 425.37 40.01 234 39.59 233 490.85 388.01 448.25"/></g><polygon class="d" points="244.43 98.22 244.04 275.47 302.64 275.6 303.33 275.6 296.35 351.6 243.83 365.65 243.7 426.53 351.04 397.03 367.52 217.13 302.77 216.99 302.91 156.97 372.8 157.12 372.99 157.12 378.37 98.52 244.43 98.22"/><polygon class="d" points="163.96 98.05 172.24 354.66 154.22 350.34 150.49 304.56 102.75 304.46 110.76 396.5 217.99 426.53 218.72 98.17 163.96 98.05"/></g></g></g></svg>