<?xml version="1.0" encoding="UTF-8"?><svg xmlns="http://www.w3.org/2000/svg" viewBox="0 0 402.41 358.1"><defs><style>.d{fill:#00d8ff;}</style></defs><g id="a"/><g id="b"><g id="c"><g><path class="d" d="M237.31,179.05c0,19.94-16.16,36.11-36.1,36.11s-36.1-16.17-36.1-36.11,16.16-36.1,36.1-36.1,36.1,16.16,36.1,36.1Z"/><path class="d" d="M201.2,97C90.08,97,0,133.74,0,179.05s90.08,82.04,201.2,82.04,201.21-36.73,201.21-82.04-90.09-82.04-201.21-82.04Zm135.95,124.56c-36.04,14.7-84.32,22.79-135.95,22.79s-99.91-8.09-135.95-22.79c-30.38-12.39-48.51-28.28-48.51-42.51s18.13-30.12,48.51-42.51c36.04-14.7,84.33-22.79,135.95-22.79s99.91,8.09,135.95,22.79c30.37,12.39,48.5,28.28,48.5,42.51s-18.13,30.12-48.5,42.51Z"/><path class="d" d="M130.15,138.03c-55.56,96.23-68.79,192.61-29.55,215.27,39.24,22.66,116.09-36.99,171.66-133.22,55.56-96.24,68.78-192.61,29.55-215.27-39.24-22.65-116.09,36.99-171.65,133.22Zm175.84-55.46c-5.29,38.56-22.42,84.42-48.24,129.13-25.82,44.71-56.97,82.48-87.72,106.35-25.91,20.11-48.74,27.87-61.07,20.75-12.33-7.12-17.02-30.77-12.57-63.27,5.3-38.56,22.43-84.42,48.24-129.13,25.82-44.71,56.96-82.47,87.71-106.34,25.92-20.12,48.75-27.88,61.07-20.76,12.33,7.12,17.02,30.77,12.56,63.26Z"/><path class="d" d="M100.6,4.8c-39.24,22.65-26.01,119.03,29.55,215.27,55.56,96.23,132.41,155.88,171.65,133.22,39.24-22.66,26.01-119.03-29.55-215.27C216.69,41.79,139.84-17.85,100.6,4.8Zm8.37,14.5c12.33-7.12,35.16,.64,61.07,20.76,30.75,23.87,61.9,61.63,87.71,106.34,25.82,44.71,42.95,90.57,48.24,129.13,4.46,32.5-.24,56.15-12.56,63.27-12.33,7.12-35.15-.64-61.07-20.75-30.75-23.87-61.89-61.63-87.71-106.35-25.82-44.71-42.94-90.57-48.24-129.13-4.46-32.5,.23-56.15,12.56-63.26Z"/></g></g></g></svg>