<svg width="639" height="639" viewBox="0 0 639 639" fill="none" xmlns="http://www.w3.org/2000/svg">
<g id="lens 1" clip-path="url(#clip0_28_2)">
<g id="layer1">
<path id="path2917" d="M602.56 319.417C602.56 475.795 475.79 602.554 319.423 602.554C163.045 602.554 36.2861 475.784 36.2861 319.417C36.2861 163.039 163.056 36.28 319.423 36.28C475.79 36.269 602.56 163.039 602.56 319.417Z" fill="url(#paint0_radial_28_2)"/>
<path id="path3842" d="M506.754 319.422C506.754 422.887 422.88 506.754 319.423 506.754C215.958 506.754 132.091 422.879 132.091 319.422C132.091 215.958 215.966 132.09 319.423 132.09C422.88 132.083 506.754 215.958 506.754 319.422Z" stroke="url(#paint1_radial_28_2)" stroke-width="2.99997"/>
<path id="path3852" d="M503.784 319.413C503.784 217.592 421.241 135.057 319.427 135.057C217.606 135.057 135.071 217.599 135.071 319.413C135.071 421.235 217.613 503.77 319.427 503.77C421.241 503.777 503.784 421.235 503.784 319.413Z" stroke="url(#paint2_radial_28_2)" stroke-width="2.95233"/>
<path id="path3856" d="M500.806 319.425C500.806 419.602 419.597 500.804 319.427 500.804C219.251 500.804 138.049 419.595 138.049 319.425C138.049 219.249 219.258 138.047 319.427 138.047C419.597 138.04 500.806 219.249 500.806 319.425Z" stroke="url(#paint3_radial_28_2)" stroke-width="2.90464"/>
<path id="path3860" d="M497.836 319.42C497.836 220.887 417.959 141.016 319.432 141.016C220.899 141.016 141.028 220.894 141.028 319.42C141.028 417.954 220.906 497.824 319.432 497.824C417.959 497.831 497.836 417.954 497.836 319.42Z" stroke="url(#paint4_radial_28_2)" stroke-width="2.857"/>
<path id="path3864" d="M494.848 319.419C494.848 416.308 416.304 494.845 319.422 494.845C222.533 494.845 143.996 416.301 143.996 319.419C143.996 222.53 222.54 143.993 319.422 143.993C416.304 143.986 494.848 222.53 494.848 319.419Z" stroke="url(#paint5_radial_28_2)" stroke-width="2.80931"/>
<path id="path3771" opacity="0.2449" d="M319.44 121.27C210.01 121.27 121.28 209.995 121.28 319.43C121.28 383.661 151.842 440.76 199.218 476.96C192.221 456.69 188.437 434.92 188.437 412.272C188.437 302.842 277.131 214.152 386.557 214.152C431.749 214.152 473.409 229.276 506.747 254.746C479.937 177.076 406.217 121.276 319.437 121.276L319.44 121.27Z" fill="white"/>
<path id="path3896" d="M205.279 319.422C205.279 256.38 256.384 205.28 319.421 205.28C382.462 205.28 433.563 256.385 433.563 319.422C433.563 382.463 382.458 433.563 319.421 433.563C256.384 433.568 205.279 382.463 205.279 319.422Z" stroke="url(#paint6_radial_28_2)" stroke-width="1.99999"/>
<path id="path3900" d="M223.12 319.419C223.12 266.233 266.236 223.12 319.419 223.12C372.605 223.12 415.718 266.236 415.718 319.419C415.718 372.606 372.602 415.718 319.419 415.718C266.236 415.722 223.12 372.606 223.12 319.419Z" stroke="url(#paint7_radial_28_2)" stroke-width="2.00002"/>
<path id="path3904" d="M231.039 319.416C231.039 270.603 270.61 231.035 319.42 231.035C368.234 231.035 407.802 270.606 407.802 319.416C407.802 368.23 368.23 407.798 319.42 407.798C270.61 407.802 231.039 368.23 231.039 319.416Z" stroke="url(#paint8_radial_28_2)" stroke-width="1.83558"/>
<path id="path3934" d="M319.44 121.27C210.01 121.27 121.28 209.995 121.28 319.43C121.28 428.86 210.005 517.55 319.44 517.55C428.87 517.55 517.56 428.856 517.56 319.43C517.56 210.004 428.866 121.27 319.44 121.27V121.27ZM319.44 143.27C416.721 143.27 495.56 222.145 495.56 319.43C495.56 416.711 416.716 495.55 319.44 495.55C222.159 495.55 143.28 416.706 143.28 319.43C143.28 222.149 222.155 143.27 319.44 143.27V143.27Z" fill="url(#paint9_radial_28_2)" stroke="url(#paint10_radial_28_2)"/>
<path id="path4020" opacity="0.54082" d="M148.07 288.44C144.326 259.072 227.567 164.29 279.35 160.75L309.942 250.086C268.85 290.225 261.619 301.755 260.779 310.75L148.069 288.44H148.07Z" fill="url(#paint11_radial_28_2)"/>
<path id="path4030" opacity="0.54082" d="M224.14 267.09C231.924 250.049 249.919 231.419 260.921 229.363L305.946 268.068C282.102 291.358 277.907 298.048 277.419 303.268L224.139 267.091L224.14 267.09Z" fill="white"/>
</g>
</g>
<defs>
<radialGradient id="paint0_radial_28_2" cx="0" cy="0" r="1" gradientUnits="userSpaceOnUse" gradientTransform="translate(319.434 36.2942) rotate(90.0003) scale(378.582 511.685)">
<stop stop-color="white"/>
<stop offset="1" stop-color="#CCCCCC" stop-opacity="0"/>
</radialGradient>
<radialGradient id="paint1_radial_28_2" cx="0" cy="0" r="1" gradientUnits="userSpaceOnUse" gradientTransform="translate(322.058 139.695) rotate(91.0858) scale(139.139 187.332)">
<stop stop-color="white"/>
<stop offset="1" stop-color="white" stop-opacity="0"/>
</radialGradient>
<radialGradient id="paint2_radial_28_2" cx="0" cy="0" r="1" gradientUnits="userSpaceOnUse" gradientTransform="translate(322.02 496.287) rotate(-91.0858) scale(136.93 184.356)">
<stop stop-color="white"/>
<stop offset="1" stop-color="white" stop-opacity="0"/>
</radialGradient>
<radialGradient id="paint3_radial_28_2" cx="0" cy="0" r="1" gradientUnits="userSpaceOnUse" gradientTransform="translate(321.979 145.409) rotate(91.0858) scale(134.718 181.379)">
<stop stop-color="white"/>
<stop offset="1" stop-color="white" stop-opacity="0"/>
</radialGradient>
<radialGradient id="paint4_radial_28_2" cx="0" cy="0" r="1" gradientUnits="userSpaceOnUse" gradientTransform="translate(321.941 490.582) rotate(-91.0858) scale(132.508 178.404)">
<stop stop-color="white"/>
<stop offset="1" stop-color="white" stop-opacity="0"/>
</radialGradient>
<radialGradient id="paint5_radial_28_2" cx="0" cy="0" r="1" gradientUnits="userSpaceOnUse" gradientTransform="translate(321.89 151.114) rotate(91.0858) scale(130.297 175.426)">
<stop stop-color="white"/>
<stop offset="1" stop-color="white" stop-opacity="0"/>
</radialGradient>
<radialGradient id="paint6_radial_28_2" cx="0" cy="0" r="1" gradientUnits="userSpaceOnUse" gradientTransform="translate(319.418 416.729) rotate(-89.997) scale(199.293 169.263)">
<stop stop-color="white"/>
<stop offset="0.90625" stop-color="white" stop-opacity="0"/>
<stop offset="1" stop-color="white"/>
</radialGradient>
<radialGradient id="paint7_radial_28_2" cx="0" cy="0" r="1" gradientUnits="userSpaceOnUse" gradientTransform="translate(319.42 416.728) rotate(-89.9973) scale(199.287 169.261)">
<stop stop-color="white"/>
<stop offset="0.61235" stop-color="white" stop-opacity="0"/>
<stop offset="1" stop-color="white"/>
</radialGradient>
<radialGradient id="paint8_radial_28_2" cx="0" cy="0" r="1" gradientUnits="userSpaceOnUse" gradientTransform="translate(319.426 416.724) rotate(-89.9969) scale(199.289 169.267)">
<stop stop-color="white"/>
<stop offset="0.90625" stop-color="white" stop-opacity="0"/>
<stop offset="1" stop-color="white"/>
</radialGradient>
<radialGradient id="paint9_radial_28_2" cx="0" cy="0" r="1" gradientUnits="userSpaceOnUse" gradientTransform="translate(319.442 120.767) rotate(-91.5559) scale(35.1385 211.252)">
<stop stop-color="white"/>
<stop offset="1" stop-color="white" stop-opacity="0"/>
</radialGradient>
<radialGradient id="paint10_radial_28_2" cx="0" cy="0" r="1" gradientUnits="userSpaceOnUse" gradientTransform="translate(318.459 85.6416) rotate(82.6647) scale(190.218 198.141)">
<stop stop-color="white"/>
<stop offset="1" stop-color="white" stop-opacity="0"/>
</radialGradient>
<radialGradient id="paint11_radial_28_2" cx="0" cy="0" r="1" gradientUnits="userSpaceOnUse" gradientTransform="translate(288.857 277.722) rotate(-129.79) scale(235.652 111.106)">
<stop stop-color="white"/>
<stop offset="1" stop-color="white" stop-opacity="0"/>
</radialGradient>
<clipPath id="clip0_28_2">
<rect width="638.85" height="638.82" fill="white"/>
</clipPath>
</defs>
</svg>
