<svg width="224" height="224" viewBox="0 0 224 224" fill="none" xmlns="http://www.w3.org/2000/svg">
<g id="gear">
<g id="Vector">
<mask id="path-1-inside-1_20_2" fill="white">
<path fill-rule="evenodd" clip-rule="evenodd" d="M212.001 116.368L220.293 128.805C221.956 131.273 223.05 134.081 223.494 137.024C223.938 139.967 223.721 142.972 222.86 145.821C220.687 152.967 217.826 159.886 214.317 166.48C212.913 169.103 210.942 171.38 208.547 173.146C206.153 174.911 203.396 176.122 200.475 176.689L185.799 179.624L179.624 185.8L176.688 200.476C176.121 203.397 174.91 206.155 173.144 208.549C171.378 210.944 169.101 212.915 166.478 214.319C159.884 217.828 152.966 220.688 145.82 222.859C143.944 223.431 141.993 223.721 140.031 223.722C136.032 223.714 132.126 222.521 128.805 220.293L116.367 212.001H107.633L95.1958 220.292C92.7276 221.956 89.9204 223.049 86.9774 223.493C84.0345 223.937 81.0296 223.72 78.1807 222.859C71.0342 220.687 64.1153 217.826 57.521 214.318C54.8985 212.913 52.6217 210.942 50.8557 208.548C49.0898 206.154 47.8791 203.396 47.3115 200.476L44.377 185.799L38.2022 179.624L23.5259 176.689C20.6055 176.121 17.8481 174.91 15.4538 173.145C13.0595 171.379 11.0884 169.102 9.68361 166.48C6.175 159.885 3.31443 152.965 1.14211 145.818C0.281028 142.969 0.0646287 139.965 0.5086 137.022C0.952571 134.079 2.04579 131.272 3.709 128.804L12 116.367V107.633L3.709 95.1968C2.04565 92.7286 0.952355 89.9213 0.508378 86.9782C0.0644023 84.0352 0.280871 81.0302 1.14209 78.1812C3.3147 71.0344 6.1756 64.1153 9.68457 57.521C11.0892 54.8984 13.0602 52.6215 15.4546 50.8555C17.8489 49.0896 20.6064 47.879 23.5269 47.3116L38.2021 44.377L44.3779 38.2012L47.3125 23.5269C47.8799 20.6059 49.0906 17.848 50.8568 15.4534C52.623 13.0587 54.9004 11.0874 57.5234 9.6827C64.1172 6.17469 71.0357 3.31446 78.1816 1.14217C81.031 0.280951 84.0364 0.0645706 86.9798 0.508713C89.9231 0.952855 92.7308 2.04639 95.1992 3.71004L107.634 12H116.368L128.804 3.70904C131.272 2.04574 134.08 0.952485 137.023 0.508511C139.966 0.0645362 142.971 0.280971 145.82 1.14213C152.967 3.31466 159.886 6.17522 166.48 9.68363C169.103 11.0884 171.38 13.0596 173.146 15.4541C174.912 17.8486 176.122 20.6062 176.689 23.5269L179.625 38.2022L185.8 44.3775L200.476 47.3125C203.396 47.8801 206.154 49.0909 208.548 50.8569C210.942 52.6229 212.913 54.8999 214.318 57.5225C217.827 64.1163 220.687 71.0349 222.86 78.1812C223.721 81.0303 223.938 84.0354 223.493 86.9785C223.049 89.9217 221.956 92.7291 220.292 95.1973L212.001 107.634V116.368ZM199.333 140.631L190.017 126.658C188.702 124.686 188.001 122.37 188.001 120.001V104.001C188.001 101.632 188.702 99.3156 190.017 97.3443L199.333 83.3707C197.889 78.95 196.111 74.6458 194.013 70.4957L177.53 67.1988C175.207 66.7341 173.074 65.5922 171.398 63.917L160.085 52.6036C158.41 50.9283 157.268 48.7947 156.804 46.4717L153.506 29.9878C149.356 27.8906 145.051 26.1127 140.63 24.6695L126.657 33.9849C124.686 35.2989 122.37 36.0001 120.001 36H104.001C101.632 36 99.316 35.2989 97.3448 33.9849L83.3716 24.6695C78.9508 26.1126 74.6463 27.8906 70.4956 29.9878L67.1997 46.4702C66.7353 48.7935 65.5934 50.9273 63.918 52.6026L52.6035 63.917C50.9281 65.5922 48.7944 66.7341 46.4712 67.1987L29.9888 70.4947C27.8911 74.6453 26.1128 78.9497 24.6694 83.3707L33.9844 97.3438C35.2987 99.3149 36.0001 101.631 36 104V120C36.0001 122.369 35.2987 124.685 33.9844 126.656L24.6694 140.629C26.1126 145.05 27.8906 149.355 29.9878 153.505L46.4717 156.802C48.7947 157.267 50.9283 158.409 52.6035 160.084L63.917 171.397C65.5924 173.073 66.7343 175.206 67.1987 177.53L70.4951 194.014C74.6455 196.111 78.9496 197.889 83.3701 199.332L97.3438 190.016C99.315 188.702 101.631 188.001 104 188.001H120C122.369 188.001 124.685 188.702 126.656 190.017L140.63 199.333C145.051 197.89 149.355 196.112 153.505 194.014L156.802 177.53C157.267 175.207 158.409 173.074 160.084 171.399L171.397 160.085C173.073 158.409 175.206 157.267 177.53 156.802L194.013 153.506C196.111 149.356 197.889 145.052 199.333 140.631Z"/>
</mask>
<path fill-rule="evenodd" clip-rule="evenodd" d="M212.001 116.368L220.293 128.805C221.956 131.273 223.05 134.081 223.494 137.024C223.938 139.967 223.721 142.972 222.86 145.821C220.687 152.967 217.826 159.886 214.317 166.48C212.913 169.103 210.942 171.38 208.547 173.146C206.153 174.911 203.396 176.122 200.475 176.689L185.799 179.624L179.624 185.8L176.688 200.476C176.121 203.397 174.91 206.155 173.144 208.549C171.378 210.944 169.101 212.915 166.478 214.319C159.884 217.828 152.966 220.688 145.82 222.859C143.944 223.431 141.993 223.721 140.031 223.722C136.032 223.714 132.126 222.521 128.805 220.293L116.367 212.001H107.633L95.1958 220.292C92.7276 221.956 89.9204 223.049 86.9774 223.493C84.0345 223.937 81.0296 223.72 78.1807 222.859C71.0342 220.687 64.1153 217.826 57.521 214.318C54.8985 212.913 52.6217 210.942 50.8557 208.548C49.0898 206.154 47.8791 203.396 47.3115 200.476L44.377 185.799L38.2022 179.624L23.5259 176.689C20.6055 176.121 17.8481 174.91 15.4538 173.145C13.0595 171.379 11.0884 169.102 9.68361 166.48C6.175 159.885 3.31443 152.965 1.14211 145.818C0.281028 142.969 0.0646287 139.965 0.5086 137.022C0.952571 134.079 2.04579 131.272 3.709 128.804L12 116.367V107.633L3.709 95.1968C2.04565 92.7286 0.952355 89.9213 0.508378 86.9782C0.0644023 84.0352 0.280871 81.0302 1.14209 78.1812C3.3147 71.0344 6.1756 64.1153 9.68457 57.521C11.0892 54.8984 13.0602 52.6215 15.4546 50.8555C17.8489 49.0896 20.6064 47.879 23.5269 47.3116L38.2021 44.377L44.3779 38.2012L47.3125 23.5269C47.8799 20.6059 49.0906 17.848 50.8568 15.4534C52.623 13.0587 54.9004 11.0874 57.5234 9.6827C64.1172 6.17469 71.0357 3.31446 78.1816 1.14217C81.031 0.280951 84.0364 0.0645706 86.9798 0.508713C89.9231 0.952855 92.7308 2.04639 95.1992 3.71004L107.634 12H116.368L128.804 3.70904C131.272 2.04574 134.08 0.952485 137.023 0.508511C139.966 0.0645362 142.971 0.280971 145.82 1.14213C152.967 3.31466 159.886 6.17522 166.48 9.68363C169.103 11.0884 171.38 13.0596 173.146 15.4541C174.912 17.8486 176.122 20.6062 176.689 23.5269L179.625 38.2022L185.8 44.3775L200.476 47.3125C203.396 47.8801 206.154 49.0909 208.548 50.8569C210.942 52.6229 212.913 54.8999 214.318 57.5225C217.827 64.1163 220.687 71.0349 222.86 78.1812C223.721 81.0303 223.938 84.0354 223.493 86.9785C223.049 89.9217 221.956 92.7291 220.292 95.1973L212.001 107.634V116.368ZM199.333 140.631L190.017 126.658C188.702 124.686 188.001 122.37 188.001 120.001V104.001C188.001 101.632 188.702 99.3156 190.017 97.3443L199.333 83.3707C197.889 78.95 196.111 74.6458 194.013 70.4957L177.53 67.1988C175.207 66.7341 173.074 65.5922 171.398 63.917L160.085 52.6036C158.41 50.9283 157.268 48.7947 156.804 46.4717L153.506 29.9878C149.356 27.8906 145.051 26.1127 140.63 24.6695L126.657 33.9849C124.686 35.2989 122.37 36.0001 120.001 36H104.001C101.632 36 99.316 35.2989 97.3448 33.9849L83.3716 24.6695C78.9508 26.1126 74.6463 27.8906 70.4956 29.9878L67.1997 46.4702C66.7353 48.7935 65.5934 50.9273 63.918 52.6026L52.6035 63.917C50.9281 65.5922 48.7944 66.7341 46.4712 67.1987L29.9888 70.4947C27.8911 74.6453 26.1128 78.9497 24.6694 83.3707L33.9844 97.3438C35.2987 99.3149 36.0001 101.631 36 104V120C36.0001 122.369 35.2987 124.685 33.9844 126.656L24.6694 140.629C26.1126 145.05 27.8906 149.355 29.9878 153.505L46.4717 156.802C48.7947 157.267 50.9283 158.409 52.6035 160.084L63.917 171.397C65.5924 173.073 66.7343 175.206 67.1987 177.53L70.4951 194.014C74.6455 196.111 78.9496 197.889 83.3701 199.332L97.3438 190.016C99.315 188.702 101.631 188.001 104 188.001H120C122.369 188.001 124.685 188.702 126.656 190.017L140.63 199.333C145.051 197.89 149.355 196.112 153.505 194.014L156.802 177.53C157.267 175.207 158.409 173.074 160.084 171.399L171.397 160.085C173.073 158.409 175.206 157.267 177.53 156.802L194.013 153.506C196.111 149.356 197.889 145.052 199.333 140.631Z" fill="#A7A6A8" stroke="black" stroke-width="2" mask="url(#path-1-inside-1_20_2)"/>
</g>
<circle id="Ellipse 1" cx="112" cy="23" r="7" fill="#1FFC43"/>
</g>
</svg>
